HIERARCHY
ROOT Hips
{
	OFFSET 0.000000 0.000000 0.000000
	CHANNELS 6 Xposition Yposition Zposition Zrotation Yrotation Xrotation 
	JOINT LowerBack
	{
		OFFSET 0.000000 0.000000 0.000000
		CHANNELS 3 Zrotation Yrotation Xrotation
		JOINT Spine
		{
			OFFSET 0.028270 2.035590 -0.193380
			CHANNELS 3 Zrotation Yrotation Xrotation
			JOINT Spine1
			{
				OFFSET 0.056720 2.048850 -0.042750
				CHANNELS 3 Zrotation Yrotation Xrotation
				JOINT Neck
				{
					OFFSET 0.000000 0.000000 0.000000
					CHANNELS 3 Zrotation Yrotation Xrotation
					JOINT Neck1
					{
						OFFSET -0.054170 1.746240 0.172020
						CHANNELS 3 Zrotation Yrotation Xrotation
						JOINT Head
						{
							OFFSET 0.104070 1.761360 -0.123970
							CHANNELS 3 Zrotation Yrotation Xrotation
							End Site
							{
								OFFSET 0.000000 0.000000 0.000000
							}
						}
					}
				}
				JOINT LeftShoulder
				{
					OFFSET 0.000000 0.000000 0.000000
					CHANNELS 3 Zrotation Yrotation Xrotation
					JOINT LeftArm
					{
						OFFSET 3.362410 1.200890 -0.311210
						CHANNELS 3 Zrotation Yrotation Xrotation
						JOINT LeftForeArm
						{
							OFFSET 4.983000 -0.000000 -0.000000
							CHANNELS 3 Zrotation Yrotation Xrotation
							JOINT LeftHand
							{
								OFFSET 3.483560 -0.000000 -0.000000
								CHANNELS 3 Zrotation Yrotation Xrotation
								JOINT LeftFingerBase
								{
									OFFSET 0.000000 0.000000 0.000000
									CHANNELS 3 Zrotation Yrotation Xrotation
									JOINT LeftHandIndex1
									{
										OFFSET 0.715260 -0.000000 -0.000000
										CHANNELS 3 Zrotation Yrotation Xrotation
										End Site
										{
											OFFSET 0.000000 0.000000 0.000000
										}
									}
								}
								JOINT LThumb
								{
									OFFSET 0.000000 0.000000 0.000000
									CHANNELS 3 Zrotation Yrotation Xrotation
									End Site
									{
										OFFSET 0.000000 0.000000 0.000000
									}
								}
							}
						}
					}
				}
				JOINT RightShoulder
				{
					OFFSET 0.000000 0.000000 0.000000
					CHANNELS 3 Zrotation Yrotation Xrotation
					JOINT RightArm
					{
						OFFSET -3.136600 1.374050 -0.404650
						CHANNELS 3 Zrotation Yrotation Xrotation
						JOINT RightForeArm
						{
							OFFSET -5.241900 -0.000000 -0.000000
							CHANNELS 3 Zrotation Yrotation Xrotation
							JOINT RightHand
							{
								OFFSET -3.444170 -0.000000 -0.000000
								CHANNELS 3 Zrotation Yrotation Xrotation
								JOINT RightFingerBase
								{
									OFFSET 0.000000 0.000000 0.000000
									CHANNELS 3 Zrotation Yrotation Xrotation
									JOINT RightHandIndex1
									{
										OFFSET -0.622530 -0.000000 -0.000000
										CHANNELS 3 Zrotation Yrotation Xrotation
										End Site
										{
											OFFSET 0.000000 0.000000 0.000000
										}
									}
								}
								JOINT RThumb
								{
									OFFSET 0.000000 0.000000 0.000000
									CHANNELS 3 Zrotation Yrotation Xrotation
									End Site
									{
										OFFSET 0.000000 0.000000 0.000000
									}
								}
							}
						}
					}
				}
			}
		}
	}
}
}
MOTION
Frames: 15
Frame Time: 0.008333
-4.972936 14.984914 -0.274280 -171.510961 -86.851095 -119.717612 -0.977818 -0.457797 -2.267067 -0.967814 -0.481676 -4.340038 -4.397420 -0.489597 -3.530202 4.471311 0.618226 -3.711305 -2.577544 -0.191502 0.185441 0.000000 0.000000 0.000000 5.031134 5.306009 1.921064 -68.264722 -20.878565 2.306263 -177.990375 -60.097215 179.859423 12.807687 -7.215024 -0.948581 -0.480261 0.941278 0.000000 0.000000 0.000000 0.000000 0.000000 0.000000 0.000000 -0.565783 4.930722 0.287900 70.427100 15.935568 -2.525236 -179.667045 62.716286 179.825030 -15.860634 20.117441 -3.036103 0.266321 -1.055653 -0.000000 0.000000 0.000000 0.000000 0.000000 0.000000 0.000000 
-4.959610 14.976163 -0.304442 -172.009927 -86.620097 -119.309318 -0.922399 -0.464557 -2.181535 -0.956285 -0.489976 -4.329231 -4.406134 -0.498808 -3.572832 4.530064 0.624806 -3.767315 -2.579596 -0.190836 0.167121 0.000000 0.000000 0.000000 5.018830 5.223779 1.961078 -68.008197 -20.572780 1.852526 -178.026392 -60.315307 179.858962 12.885424 -7.129781 -0.943099 -0.478914 0.933449 -0.000000 0.000000 0.000000 0.000000 0.000000 0.000000 0.000000 -0.467770 4.981757 0.302640 70.565253 15.824608 -2.491550 -179.660269 62.899353 179.825230 -15.814314 20.109617 -3.025225 0.263308 -1.053453 -0.000000 0.000000 0.000000 0.000000 0.000000 0.000000 0.000000 
-4.945961 14.967125 -0.335141 -172.566969 -86.401538 -118.850487 -0.863343 -0.471165 -2.087785 -0.943844 -0.498088 -4.316823 -4.414402 -0.507864 -3.617578 4.593510 0.634015 -3.823360 -2.579732 -0.190032 0.148800 0.000000 0.000000 0.000000 4.993158 5.134134 2.001926 -67.749250 -20.266688 1.406779 -178.067669 -60.585566 179.858434 12.973619 -7.042809 -0.938022 -0.477308 0.925050 -0.000000 0.000000 0.000000 0.000000 0.000000 0.000000 0.000000 -0.363765 5.037696 0.318388 70.716885 15.692335 -2.452696 -179.651650 63.116534 179.825369 -15.772468 20.110287 -3.016448 0.259994 -1.050957 -0.000000 0.000000 0.000000 0.000000 0.000000 0.000000 0.000000 
-4.931959 14.957868 -0.366574 -173.204594 -86.193281 -118.321140 -0.804430 -0.480141 -1.984881 -0.931499 -0.508378 -4.301761 -4.423111 -0.519122 -3.662043 4.668018 0.644699 -3.881264 -2.578791 -0.189118 0.129872 0.000000 0.000000 0.000000 4.954912 5.047150 2.044057 -67.484014 -19.965843 0.971309 -178.114155 -60.918600 179.857864 13.071997 -6.954555 -0.933250 -0.475419 0.916031 -0.000000 0.000000 0.000000 0.000000 0.000000 0.000000 0.000000 -0.241582 5.095276 0.334234 70.875232 15.550361 -2.399889 -179.641778 63.373266 179.825397 -15.746944 20.114871 -3.011275 0.256730 -1.047968 -0.000000 0.000000 0.000000 0.000000 0.000000 0.000000 0.000000 
-4.917757 14.948360 -0.398501 -173.859690 -85.997541 -117.785507 -0.743716 -0.489221 -1.874553 -0.919154 -0.518705 -4.284157 -4.433081 -0.530431 -3.704748 4.760218 0.645264 -3.941493 -2.578455 -0.188213 0.110291 0.000000 0.000000 0.000000 4.907425 4.953477 2.085676 -67.219971 -19.663948 0.546351 -178.167003 -61.319085 179.857346 13.173249 -6.866542 -0.928382 -0.472861 0.906359 -0.000000 0.000000 0.000000 0.000000 0.000000 0.000000 0.000000 -0.084204 5.142125 0.352317 71.022648 15.408253 -2.328498 -179.632965 63.675565 179.825313 -15.750627 20.118915 -3.011603 0.254035 -1.044279 -0.000000 0.000000 0.000000 0.000000 0.000000 0.000000 0.000000 
-4.903369 14.938776 -0.430847 -174.510848 -85.814058 -117.268684 -0.680999 -0.499935 -1.757289 -0.906923 -0.530659 -4.263551 -4.445602 -0.543391 -3.743759 4.876011 0.632464 -4.005374 -2.580777 -0.187441 0.089675 0.000000 0.000000 0.000000 4.852289 4.856695 2.126890 -66.957664 -19.357722 0.130439 -178.226195 -61.792885 179.856924 13.275182 -6.779791 -0.923419 -0.469531 0.896013 -0.000000 0.000000 0.000000 0.000000 0.000000 0.000000 0.000000 0.125391 5.172806 0.372761 71.147209 15.279498 -2.228870 -179.626477 64.032422 179.825101 -15.793377 20.111890 -3.017734 0.252264 -1.039538 -0.000000 0.000000 0.000000 0.000000 0.000000 0.000000 0.000000 
-4.888899 14.929134 -0.463554 -175.124792 -85.643126 -116.805427 -0.615710 -0.513832 -1.633452 -0.894894 -0.545870 -4.239460 -4.462088 -0.559652 -3.777198 5.021162 0.603149 -4.074509 -2.588239 -0.186954 0.067503 0.000000 0.000000 0.000000 4.793845 4.760784 2.167603 -66.701216 -19.042609 -0.278259 -178.291707 -62.343475 179.856650 13.374239 -6.694029 -0.918161 -0.465285 0.884961 -0.000000 0.000000 0.000000 0.000000 0.000000 0.000000 0.000000 0.405798 5.181959 0.395894 71.237304 15.176490 -2.092290 -179.623677 64.452757 179.824792 -15.882035 20.083938 -3.029468 0.251698 -1.033414 -0.000000 0.000000 0.000000 0.000000 0.000000 0.000000 0.000000 
-4.874371 14.919586 -0.496534 -175.667117 -85.485636 -116.434206 -0.546053 -0.532366 -1.503156 -0.882838 -0.565910 -4.211565 -4.484057 -0.580813 -3.803894 5.200532 0.555144 -4.150361 -2.603250 -0.186904 0.043336 0.000000 0.000000 0.000000 4.736886 4.667746 2.207976 -66.455610 -18.711152 -0.683124 -178.363905 -62.976149 179.856549 13.468172 -6.609586 -0.912305 -0.459977 0.873168 0.000000 0.000000 0.000000 0.000000 0.000000 0.000000 0.000000 0.773770 5.165642 0.422148 71.282980 15.110729 -1.911766 -179.625771 64.944748 179.824440 -16.018096 20.025745 -3.045706 0.252466 -1.025623 0.000000 0.000000 0.000000 0.000000 0.000000 0.000000 0.000000 
-4.859982 14.910089 -0.529590 -176.096165 -85.342552 -116.196526 -0.469226 -0.556838 -1.366470 -0.870272 -0.592236 -4.179617 -4.512824 -0.608372 -3.822980 5.417144 0.487504 -4.234440 -2.628052 -0.187430 0.016659 0.000000 0.000000 0.000000 4.686445 4.579376 2.248199 -66.227379 -18.354415 -1.087477 -178.443049 -63.694516 179.856644 13.556076 -6.526492 -0.905953 -0.453511 0.860605 0.000000 0.000000 0.000000 0.000000 0.000000 0.000000 0.000000 1.243388 5.121438 0.452096 71.276835 15.090396 -1.682689 -179.633740 65.516413 179.824140 -16.197808 19.931009 -3.064448 0.254550 -1.015956 0.000000 0.000000 0.000000 0.000000 0.000000 0.000000 0.000000 
-4.845641 14.900914 -0.562460 -176.360620 -85.215649 -116.150417 -0.379128 -0.587445 -1.222024 -0.855815 -0.625269 -4.143167 -4.549545 -0.642763 -3.834067 5.671201 0.398154 -4.328571 -2.664230 -0.188626 -0.013036 0.000000 0.000000 0.000000 4.646494 4.496722 2.288240 -66.024553 -17.964821 -1.493970 -178.529663 -64.502517 179.856897 13.640582 -6.444272 -0.899204 -0.445852 0.847247 -0.000000 0.000000 0.000000 0.000000 0.000000 0.000000 0.000000 1.821346 5.046692 0.486264 71.215624 15.122114 -1.402585 -179.647997 66.174122 179.823997 -16.411703 19.795012 -3.082995 0.257745 -1.004307 0.000000 0.000000 0.000000 0.000000 0.000000 0.000000 0.000000 
-4.831585 14.892063 -0.594986 -176.433115 -85.105996 -116.323381 -0.273946 -0.623964 -1.070732 -0.839294 -0.664863 -4.103034 -4.595239 -0.683916 -3.838792 5.963897 0.290237 -4.432143 -2.713026 -0.190602 -0.045514 0.000000 0.000000 0.000000 4.624992 4.410697 2.328203 -65.856907 -17.525908 -1.908333 -178.624812 -65.405795 179.857304 13.722156 -6.364253 -0.892259 -0.436835 0.833069 -0.000000 0.000000 0.000000 0.000000 0.000000 0.000000 0.000000 2.514405 4.944953 0.526353 71.097924 15.199734 -1.078330 -179.668932 66.922516 179.824168 -16.644367 19.624407 -3.098945 0.261689 -0.990793 -0.000000 0.000000 0.000000 0.000000 0.000000 0.000000 0.000000 
-4.818016 14.883321 -0.627249 -176.353264 -85.008900 -116.672680 -0.157842 -0.665521 -0.924260 -0.822015 -0.710189 -4.063520 -4.651040 -0.731163 -3.840187 6.294802 0.170170 -4.541914 -2.774840 -0.193465 -0.079318 0.000000 0.000000 0.000000 4.633299 4.301999 2.368151 -65.732753 -17.010527 -2.338483 -178.729557 -66.406393 179.857801 13.806404 -6.286077 -0.885318 -0.426450 0.818028 -0.000000 0.000000 0.000000 0.000000 0.000000 0.000000 0.000000 3.321324 4.823760 0.574116 70.930968 15.304212 -0.721597 -179.696047 67.759207 179.824777 -16.877373 19.426576 -3.109695 0.265920 -0.975691 0.000001 0.000000 0.000000 0.000000 0.000000 0.000000 0.000000 
-4.804755 14.875645 -0.658238 -175.928740 -84.935775 -117.411619 -0.003721 -0.710415 -0.758003 -0.797136 -0.760076 -4.017600 -4.716955 -0.783168 -3.837389 6.654516 0.039447 -4.662291 -2.847952 -0.197010 -0.116303 0.000000 0.000000 0.000000 4.654409 4.192822 2.409503 -65.652867 -16.446155 -2.778146 -178.842523 -67.522530 179.858327 13.899876 -6.210263 -0.878983 -0.414838 0.802112 0.000000 0.000000 0.000000 0.000000 0.000000 0.000000 0.000000 4.223145 4.685552 0.627706 70.721864 15.444002 -0.338519 -179.727550 68.688639 179.825944 -17.089690 19.220525 -3.114348 0.269757 -0.959352 -0.000000 0.000000 0.000000 0.000000 0.000000 0.000000 0.000000 
-4.792054 14.868712 -0.687947 -175.180516 -84.879930 -118.514009 0.186593 -0.756254 -0.582379 -0.765331 -0.812187 -3.968876 -4.793277 -0.837704 -3.832222 7.038266 -0.097455 -4.791316 -2.930503 -0.201165 -0.155406 0.000000 0.000000 0.000000 4.692002 4.071237 2.452335 -65.619813 -15.820232 -3.228226 -178.963709 -68.763011 179.858792 14.012015 -6.134894 -0.873556 -0.402155 0.785244 0.000000 0.000000 0.000000 0.000000 0.000000 0.000000 0.000000 5.203852 4.536790 0.687706 70.486480 15.596017 0.056967 -179.761997 69.708909 179.827756 -17.262635 19.023168 -3.112101 0.272672 -0.942228 -0.000000 0.000000 0.000000 0.000000 0.000000 0.000000 0.000000 
-4.780003 14.862638 -0.716329 -174.077897 -84.838148 -120.015579 0.416297 -0.800706 -0.396459 -0.725970 -0.864188 -3.917656 -4.879954 -0.892461 -3.826057 7.440358 -0.234712 -4.927720 -3.019437 -0.205747 -0.196023 0.000000 0.000000 0.000000 4.745901 3.935929 2.497273 -65.633952 -15.137004 -3.685402 -179.092233 -70.144885 179.859158 14.148352 -6.060478 -0.869337 -0.388468 0.767419 0.000000 0.000000 0.000000 0.000000 0.000000 0.000000 0.000000 6.240570 4.385467 0.753082 70.244051 15.740931 0.448650 -179.797345 70.815807 179.830263 -17.379226 18.860493 -3.104353 0.274114 -0.924912 0.000000 0.000000 0.000000 0.000000 0.000000 0.000000 0.000000 
